<?xml version="1.0" standalone="no"?>
<!DOCTYPE svg PUBLIC "-//W3C//DTD SVG 20010904//EN"
 "http://www.w3.org/TR/2001/REC-SVG-20010904/DTD/svg10.dtd">
<svg version="1.0" xmlns="http://www.w3.org/2000/svg"
 width="609.000000pt" height="609.000000pt" viewBox="0 0 609.000000 609.000000"
 preserveAspectRatio="xMidYMid meet">
<metadata>
Created by potrace 1.14, written by Peter Selinger 2001-2017
</metadata>
<g transform="translate(0.000000,609.000000) scale(0.100000,-0.100000)"
fill="#000000" stroke="none">
<path d="M3143 5765 c-35 -7 -84 -25 -110 -40 -27 -14 -205 -158 -398 -320
l-350 -295 -435 0 c-250 0 -463 -5 -500 -11 -147 -23 -272 -114 -338 -247 -36
-73 -37 -77 -42 -220 l-5 -146 -114 -42 c-138 -51 -199 -91 -256 -167 -68 -90
-89 -153 -89 -272 0 -92 4 -109 41 -210 l41 -111 -90 -74 c-52 -44 -106 -99
-129 -134 -62 -92 -89 -218 -70 -322 22 -115 53 -161 367 -534 l299 -355 5
-495 5 -495 32 -68 c38 -81 122 -173 193 -211 67 -37 165 -56 286 -56 l101 0
33 -92 c45 -128 75 -180 137 -239 96 -91 240 -138 361 -119 31 5 104 26 161
46 l104 37 36 -44 c155 -191 253 -248 422 -249 72 0 153 20 212 53 21 12 194
153 385 314 l347 292 462 1 c484 0 523 3 620 46 59 25 140 97 185 161 51 75
61 116 67 277 l6 149 110 41 c169 64 236 118 295 241 64 133 63 233 -6 415
l-35 95 63 55 c113 98 159 151 191 218 30 64 32 73 32 187 0 175 0 176 -356
600 l-294 350 -5 500 -5 500 -32 67 c-35 73 -95 144 -160 190 -75 51 -144 69
-294 75 l-137 6 -37 101 c-20 56 -47 119 -60 141 -33 58 -121 137 -185 167
-134 62 -234 62 -405 -1 -88 -33 -112 -38 -120 -28 -65 86 -151 176 -199 208
-98 66 -229 90 -343 64z m-603 -2490 l-250 -250 252 -252 253 -253 -155 -155
-155 -155 -407 407 -408 408 407 408 408 408 153 -157 153 -158 -251 -251z
m1473 -658 l-408 -408 -153 156 -153 156 250 245 c138 136 251 251 251 258 0
6 -112 124 -250 261 l-250 250 152 152 153 153 407 -407 408 -408 -407 -408z"/>
<path d="M3465 3548 l-80 -83 83 80 c76 74 87 85 79 85 -1 0 -38 -37 -82 -82z"/>
</g>
</svg>
